<svg width="16" height="16" viewBox="0 0 16 16" fill="none" xmlns="http://www.w3.org/2000/svg">
<path d="M8 16L7.18 15.1924C5.76667 13.7808 4.6 12.5621 3.68 11.5362C2.76 10.5102 2.02667 9.59345 1.48 8.78581C0.933333 7.97817 0.55 7.24693 0.33 6.59209C0.11 5.93724 0 5.27513 0 4.60573C0 3.29604 0.403333 2.201 1.21 1.3206C2.01667 0.4402 3.01333 0 4.2 0C4.96 0 5.66333 0.196453 6.31 0.589359C6.95667 0.982265 7.52 1.5498 8 2.29195C8.56 1.50614 9.15333 0.927694 9.78 0.556616C10.4067 0.185539 11.08 0 11.8 0C12.9867 0 13.9833 0.4402 14.79 1.3206C15.5967 2.201 16 3.29604 16 4.60573C16 5.27513 15.89 5.93724 15.67 6.59209C15.45 7.24693 15.0667 7.97817 14.52 8.78581C13.9733 9.59345 13.24 10.5102 12.32 11.5362C11.4 12.5621 10.2333 13.7808 8.82 15.1924L8 16ZM8 14.2756C9.34667 12.9222 10.4567 11.7617 11.33 10.794C12.2033 9.82628 12.8967 8.97863 13.41 8.25102C13.9233 7.52342 14.2833 6.87585 14.49 6.30832C14.6967 5.74079 14.8 5.17326 14.8 4.60573C14.8 3.64529 14.52 2.85584 13.96 2.23738C13.4 1.61892 12.68 1.30969 11.8 1.30969C11.12 1.30969 10.4867 1.53888 9.9 1.99727C9.31333 2.45566 8.84 3.09959 8.48 3.92906H7.5C7.15333 3.11414 6.68667 2.47385 6.1 2.00819C5.51333 1.54252 4.88 1.30969 4.2 1.30969C3.32 1.30969 2.6 1.61892 2.04 2.23738C1.48 2.85584 1.2 3.64529 1.2 4.60573C1.2 5.17326 1.30333 5.74443 1.51 6.31924C1.71667 6.89404 2.07667 7.54888 2.59 8.28376C3.10333 9.01864 3.8 9.8663 4.68 10.8267C5.56 11.7872 6.66667 12.9368 8 14.2756Z" fill="#7E888D"/>
</svg>
