<svg width="17" height="16" viewBox="0 0 17 16" fill="none" xmlns="http://www.w3.org/2000/svg">
<path d="M15.4232 6.03537L10.3635 0.975001C9.73734 0.35062 8.88911 0 8.0048 0C7.1205 0 6.27227 0.35062 5.64606 0.975001L0.586359 6.03537C0.399864 6.22067 0.252006 6.44114 0.151354 6.68401C0.0507019 6.92688 -0.000740711 7.18731 8.05781e-06 7.45021V13.9988C8.05781e-06 14.5296 0.210848 15.0386 0.586146 15.4139C0.961443 15.7892 1.47046 16 2.00121 16H14.0084C14.5391 16 15.0482 15.7892 15.4235 15.4139C15.7988 15.0386 16.0096 14.5296 16.0096 13.9988V7.45021C16.0103 7.18731 15.9589 6.92688 15.8583 6.68401C15.7576 6.44114 15.6097 6.22067 15.4232 6.03537ZM10.006 14.6659H6.0036V12.0416C6.0036 11.5109 6.21444 11.0019 6.58974 10.6266C6.96504 10.2513 7.47405 10.0404 8.0048 10.0404C8.53555 10.0404 9.04457 10.2513 9.41986 10.6266C9.79516 11.0019 10.006 11.5109 10.006 12.0416V14.6659ZM14.6755 13.9988C14.6755 14.1757 14.6052 14.3454 14.4801 14.4705C14.355 14.5956 14.1853 14.6659 14.0084 14.6659H11.3401V12.0416C11.3401 11.157 10.9887 10.3087 10.3632 9.68319C9.73774 9.0577 8.88939 8.7063 8.0048 8.7063C7.12022 8.7063 6.27186 9.0577 5.64637 9.68319C5.02087 10.3087 4.66947 11.157 4.66947 12.0416V14.6659H2.00121C1.82429 14.6659 1.65462 14.5956 1.52952 14.4705C1.40442 14.3454 1.33414 14.1757 1.33414 13.9988V7.45021C1.33476 7.27343 1.40498 7.104 1.52959 6.9786L6.58929 1.92023C6.96531 1.54596 7.47426 1.33585 8.0048 1.33585C8.53534 1.33585 9.04429 1.54596 9.42032 1.92023L14.48 6.9806C14.6041 7.1055 14.6743 7.27412 14.6755 7.45021V13.9988Z" fill="#7E888D"/>
</svg>
