<svg width="12" height="16" viewBox="0 0 12 16" fill="none" xmlns="http://www.w3.org/2000/svg">
<path d="M5.99988 7.99976C6.79098 7.99976 7.56431 7.76517 8.22209 7.32566C8.87987 6.88614 9.39254 6.26145 9.69528 5.53057C9.99803 4.79968 10.0772 3.99544 9.9229 3.21954C9.76856 2.44364 9.38761 1.73093 8.82822 1.17154C8.26883 0.612146 7.55612 0.231194 6.78022 0.0768583C6.00432 -0.0774778 5.20007 0.00173309 4.46919 0.304474C3.73831 0.607216 3.11361 1.11989 2.6741 1.77767C2.23459 2.43544 2 3.20878 2 3.99988C2.00106 5.06039 2.42281 6.07716 3.17271 6.82705C3.9226 7.57694 4.93937 7.9987 5.99988 7.99976ZM5.99988 1.33329C6.52728 1.33329 7.04284 1.48969 7.48135 1.7827C7.91987 2.0757 8.26165 2.49217 8.46348 2.97942C8.66531 3.46668 8.71812 4.00284 8.61523 4.5201C8.51234 5.03737 8.25837 5.51251 7.88544 5.88544C7.51251 6.25837 7.03737 6.51234 6.5201 6.61523C6.00284 6.71812 5.46667 6.66531 4.97942 6.46348C4.49217 6.26166 4.0757 5.91987 3.78269 5.48135C3.48969 5.04284 3.33329 4.52728 3.33329 3.99988C3.33329 3.29266 3.61424 2.6144 4.11432 2.11432C4.6144 1.61424 5.29266 1.33329 5.99988 1.33329Z" fill="#7E888D"/>
<path d="M5.99982 9.3335C4.40911 9.33526 2.88406 9.96795 1.75925 11.0928C0.634453 12.2176 0.00176451 13.7426 0 15.3333C0 15.5101 0.0702357 15.6797 0.195256 15.8047C0.320277 15.9297 0.489841 16 0.666646 16C0.843452 16 1.01302 15.9297 1.13804 15.8047C1.26306 15.6797 1.33329 15.5101 1.33329 15.3333C1.33329 14.0957 1.82494 12.9087 2.70009 12.0336C3.57523 11.1584 4.76218 10.6668 5.99982 10.6668C7.23746 10.6668 8.4244 11.1584 9.29955 12.0336C10.1747 12.9087 10.6663 14.0957 10.6663 15.3333C10.6663 15.5101 10.7366 15.6797 10.8616 15.8047C10.9866 15.9297 11.1562 16 11.333 16C11.5098 16 11.6794 15.9297 11.8044 15.8047C11.9294 15.6797 11.9996 15.5101 11.9996 15.3333C11.9979 13.7426 11.3652 12.2176 10.2404 11.0928C9.11558 9.96795 7.59053 9.33526 5.99982 9.3335Z" fill="#7E888D"/>
</svg>
