<svg width="16" height="16" viewBox="0 0 16 16" fill="none" xmlns="http://www.w3.org/2000/svg">
<path d="M3.33393 2.66667C3.33393 2.29867 3.63265 2 4.00072 2H5.33429V0.666667C5.33429 0.298667 5.63301 0 6.00107 0C6.36914 0 6.66786 0.298667 6.66786 0.666667V2H8.00143C8.3695 2 8.66822 2.29867 8.66822 2.66667C8.66822 3.03467 8.3695 3.33333 8.00143 3.33333H6.66786V4.66667C6.66786 5.03467 6.36914 5.33333 6.00107 5.33333C5.63301 5.33333 5.33429 5.03467 5.33429 4.66667V3.33333H4.00072C3.63265 3.33333 3.33393 3.03467 3.33393 2.66667ZM15.4934 8.67667L10.956 13.768C9.69173 15.1867 7.87741 16 5.97774 16H2.66714C1.19621 16 0 14.804 0 13.3333V10C0 8.52933 1.19621 7.33333 2.66714 7.33333H8.57353C9.333 7.33333 9.99912 7.73933 10.3665 8.34533L12.5109 5.98933C12.8723 5.59267 13.3657 5.36 13.9018 5.33533C14.4373 5.30533 14.9507 5.49533 15.3474 5.85667C16.1569 6.59467 16.2222 7.85933 15.4934 8.676V8.67667ZM14.4493 6.84267C14.3166 6.722 14.1432 6.66467 13.9638 6.668C13.7838 6.67667 13.6184 6.754 13.4971 6.88733L10.5459 10.13C10.2892 10.844 9.65306 11.3907 8.86959 11.5027L5.4283 11.994C5.06491 12.0467 4.72618 11.7933 4.67417 11.4287C4.62216 11.064 4.87554 10.7267 5.2396 10.6747L8.68089 10.1833C9.05362 10.13 9.335 9.806 9.335 9.42933C9.335 9.00933 8.99361 8.668 8.57353 8.668H2.66714C1.93168 8.668 1.33357 9.266 1.33357 10.0013V13.3347C1.33357 14.07 1.93168 14.668 2.66714 14.668H5.97774C7.49734 14.668 8.9496 14.0173 9.96045 12.8827L14.4979 7.79067C14.7426 7.516 14.7206 7.09133 14.4493 6.84333V6.84267Z" fill="#7E888D"/>
</svg>
